<?xml version="1.0" encoding="UTF-8"?>
<svg version="1.1" xmlns="http://www.w3.org/2000/svg" width="225" height="225">
<path d="M0 0 C12.90593491 11.55922866 12.91551206 36.05890894 14 52 C15.093125 51.360625 16.18625 50.72125 17.3125 50.0625 C22.10148563 47.2613952 26.45276737 46.27816759 32 47 C36.75240323 48.65861451 40.82220368 51.0277546 44 55 C44 55.66 44 56.32 44 57 C42.83984375 57.14695312 42.83984375 57.14695312 41.65625 57.296875 C40.6146875 57.44640625 39.573125 57.5959375 38.5 57.75 C37.4790625 57.88921875 36.458125 58.0284375 35.40625 58.171875 C31.22980307 59.18724971 27.75445114 60.94926963 24 63 C24.9446814 62.98428955 24.9446814 62.98428955 25.90844727 62.96826172 C28.79309006 62.9263977 31.67766866 62.90057799 34.5625 62.875 C35.55314453 62.85824219 36.54378906 62.84148437 37.56445312 62.82421875 C43.12728491 62.78725641 47.74843075 63.12917449 53 65 C50.19223193 68.00365886 47.39390267 70.13660656 43.875 72.25 C29.49153248 81.24683028 18.1721046 92.0475466 10 107 C9.66419922 107.60295898 9.32839844 108.20591797 8.98242188 108.82714844 C6.20518152 114.03905054 4.64716563 119.2795294 3.25 125 C2.91935547 126.30517578 2.91935547 126.30517578 2.58203125 127.63671875 C2.0464524 129.75574811 1.52204306 131.87759543 1 134 C0.34 134 -0.32 134 -1 134 C-1.15855469 133.14019531 -1.31710938 132.28039062 -1.48046875 131.39453125 C-6.55389684 105.69103094 -19.79670531 87.64950918 -41.24755859 73.15429688 C-45.08395694 70.62734071 -48.98805669 68.23724839 -53 66 C-48.93057237 63.28704825 -46.23831814 62.87704594 -41.45703125 62.90234375 C-40.38388672 62.90556641 -39.31074219 62.90878906 -38.20507812 62.91210938 C-37.08552734 62.92048828 -35.96597656 62.92886719 -34.8125 62.9375 C-33.11577148 62.94426758 -33.11577148 62.94426758 -31.38476562 62.95117188 C-28.58979073 62.96296502 -25.7949218 62.9794235 -23 63 C-27.80340332 60.37631821 -32.01088215 58.49851607 -37.5 57.75 C-38.5415625 57.60046875 -39.583125 57.4509375 -40.65625 57.296875 C-41.4296875 57.19890625 -42.203125 57.1009375 -43 57 C-40.99573249 52.4807622 -38.40959333 50.18449467 -34 48 C-27.23386446 46.18469534 -22.24389038 47.04236772 -16 50 C-15.01 50.66 -14.02 51.32 -13 52 C-12.96559814 51.32646484 -12.93119629 50.65292969 -12.89575195 49.95898438 C-10.74033 10.74033 -10.74033 10.74033 0 0 Z " fill="#E37718" transform="translate(106,6)"/>
<path d="M0 0 C1.37280273 1.49707031 1.37280273 1.49707031 2.93359375 3.578125 C3.7834082 4.70154297 3.7834082 4.70154297 4.65039062 5.84765625 C5.24013672 6.64042969 5.82988281 7.43320313 6.4375 8.25 C7.02337891 9.02730469 7.60925781 9.80460937 8.21289062 10.60546875 C9.81458646 12.732579 11.4083429 14.86537391 13 17 C13.55824463 17.70350586 14.11648926 18.40701172 14.69165039 19.13183594 C16 21 16 21 16 23 C14.98421875 23.52207031 13.9684375 24.04414062 12.921875 24.58203125 C-4.50263671 33.7904002 -15.65719501 44.66059199 -22.95703125 63.37109375 C-26.16587388 74.53594321 -26.39913998 85.72878637 -26.625 97.25 C-26.66328205 98.88152892 -26.70233926 100.51303984 -26.7421875 102.14453125 C-26.83847299 106.09624815 -26.9189079 110.04782704 -27 114 C-36.24 114 -45.48 114 -55 114 C-55.06970606 108.75655512 -55.12917625 103.51478327 -55.16479492 98.27124023 C-55.17967699 96.49579354 -55.1999892 94.7203822 -55.22631836 92.94506836 C-55.6266499 65.21229723 -49.66020875 40.93566627 -30.3684082 20.27001953 C-23.39436884 13.12635113 -10.28103732 0 0 0 Z " fill="#03A33A" transform="translate(163,74)"/>
<path d="M0 0 C11.07997441 3.97049739 20.66361938 11.9194289 29 20 C29.61101562 20.53753906 30.22203125 21.07507813 30.8515625 21.62890625 C40.70409058 30.60415443 47.08637377 43.44742859 51 56 C51.21027832 56.66515625 51.42055664 57.3303125 51.63720703 58.015625 C56.21339908 73.436269 55.44176498 89.5936415 55.23828125 105.51171875 C55.23070297 106.25245132 55.22312469 106.9931839 55.21531677 107.75636292 C55.11959479 112.88040521 55.11959479 112.88040521 54 114 C52.00035018 114.08758003 49.9976389 114.10696576 47.99609375 114.09765625 C46.17368164 114.09282227 46.17368164 114.09282227 44.31445312 114.08789062 C43.03505859 114.07951172 41.75566406 114.07113281 40.4375 114.0625 C39.15423828 114.05798828 37.87097656 114.05347656 36.54882812 114.04882812 C33.36583978 114.03699545 30.18294238 114.02051068 27 114 C26.98541748 113.04859131 26.97083496 112.09718262 26.95581055 111.11694336 C26.89684113 107.51015792 26.81963859 103.90393442 26.73754883 100.29760742 C26.70475444 98.75115227 26.67658917 97.20459044 26.65356445 95.65795898 C26.36603227 76.83377741 23.61397906 59.47540432 12 44 C11.39285156 43.18144531 10.78570312 42.36289063 10.16015625 41.51953125 C3.27479457 33.48868444 -6.83684626 28.05273194 -16 23 C-14.56011494 18.59136314 -12.14059718 15.49570903 -9.125 12.0625 C-5.76982662 8.20454842 -2.75723111 4.30256297 0 0 Z " fill="#03A33A" transform="translate(50,74)"/>
<path d="M0 0 C1.83118104 2.13039363 3.55132962 4.2675426 5.25 6.5 C5.74218018 7.1384082 6.23436035 7.77681641 6.74145508 8.43457031 C7.71997356 9.70614435 8.69569852 10.97987355 9.66845703 12.25585938 C10.78954377 13.72433089 11.92269979 15.18357696 13.05859375 16.640625 C17 21.74460432 17 21.74460432 17 24 C16.26136719 24.268125 15.52273437 24.53625 14.76171875 24.8125 C2.87868453 29.40264282 -6.62510068 35.05161753 -12 47 C-13.92334075 51.8387062 -14.33541244 56.31014736 -14.4140625 61.4609375 C-14.43342865 62.25150543 -14.4527948 63.04207336 -14.4727478 63.8565979 C-14.53216053 66.36262483 -14.57877427 68.86869865 -14.625 71.375 C-14.66321513 73.08205043 -14.70226889 74.78908231 -14.7421875 76.49609375 C-14.83783011 80.66391044 -14.92200115 84.8318173 -15 89 C-17.71401294 90.35700647 -19.84846316 90.1123861 -22.8828125 90.09765625 C-24.04941406 90.09443359 -25.21601563 90.09121094 -26.41796875 90.08789062 C-27.64128906 90.07951172 -28.86460937 90.07113281 -30.125 90.0625 C-31.35605469 90.05798828 -32.58710938 90.05347656 -33.85546875 90.04882812 C-36.90369392 90.0370133 -39.95182314 90.02054028 -43 90 C-44.92831083 67.44784962 -46.48457341 42.4180188 -32.00390625 23.37109375 C-25.20712346 15.32889657 -18.12020681 9.25736692 -9 4 C-8.28070313 3.56558594 -7.56140625 3.13117188 -6.8203125 2.68359375 C-2.31337108 0 -2.31337108 0 0 0 Z " fill="#02A43A" transform="translate(182,98)"/>
<path d="M0 0 C4.57716673 0.54960351 7.90874862 2.51249068 11.6875 5 C12.30181885 5.40226807 12.9161377 5.80453613 13.54907227 6.21899414 C28.84335879 16.45705454 38.63250211 29.40671116 42.57588196 47.53929138 C43.2448763 51.42075827 43.26659481 55.22658514 43.23046875 59.15625 C43.23001053 59.98459351 43.22955231 60.81293701 43.2290802 61.66638184 C43.22608477 63.39739434 43.21828105 65.12840482 43.20581055 66.859375 C43.18735487 69.52092902 43.1853026 72.18213815 43.18554688 74.84375 C43.18063809 76.53125303 43.17481258 78.21875371 43.16796875 79.90625 C43.16685593 80.70405884 43.1657431 81.50186768 43.16459656 82.32385254 C43.11611502 87.88388498 43.11611502 87.88388498 42 89 C39.99836123 89.0167793 37.99605136 88.96262541 35.99609375 88.87890625 C34.78115234 88.83056641 33.56621094 88.78222656 32.31445312 88.73242188 C31.03505859 88.67634766 29.75566406 88.62027344 28.4375 88.5625 C27.15423828 88.51029297 25.87097656 88.45808594 24.54882812 88.40429688 C21.36566609 88.2741304 18.18277996 88.13914999 15 88 C14.98541748 87.02240723 14.97083496 86.04481445 14.95581055 85.03759766 C14.89727073 81.3656999 14.82004866 77.69438024 14.73754883 74.02294922 C14.70455863 72.44231642 14.67644852 70.86157313 14.65356445 69.28076172 C14.46475304 56.57817284 13.94491018 45.84153602 5 36 C4.53207031 35.47792969 4.06414063 34.95585937 3.58203125 34.41796875 C-2.10026421 28.88174772 -9.82970095 26.11912623 -17 23 C-15.30621319 19.12037659 -12.77714898 15.93547911 -10.1875 12.625 C-9.76146484 12.07328125 -9.33542969 11.5215625 -8.89648438 10.953125 C-6.0103466 7.23302003 -3.03126342 3.60268651 0 0 Z " fill="#01A439" transform="translate(31,99)"/>
<path d="M0 0 C8 0 8 0 10.3125 1.96875 C11.1478125 3.22171875 11.1478125 3.22171875 12 4.5 C12.5775 5.3353125 13.155 6.170625 13.75 7.03125 C14.1625 7.6809375 14.575 8.330625 15 9 C15.75929472 6.01386614 16.4118332 3.02485781 17 0 C19.64 0 22.28 0 25 0 C25 8.58 25 17.16 25 26 C17 26 17 26 14.46875 23.59375 C13.8190625 22.5728125 13.169375 21.551875 12.5 20.5 C11.8296875 19.4790625 11.159375 18.458125 10.46875 17.40625 C9.9840625 16.6121875 9.499375 15.818125 9 15 C8.67 18.63 8.34 22.26 8 26 C5.36 26 2.72 26 0 26 C0 17.42 0 8.84 0 0 Z " fill="#B27F25" transform="translate(122,191)"/>
<path d="M0 0 C2.7302389 -0.1083667 5.45614543 -0.18746694 8.1875 -0.25 C8.95642578 -0.28351563 9.72535156 -0.31703125 10.51757812 -0.3515625 C14.5490012 -0.42077148 16.49832561 -0.31829472 19.9921875 1.8984375 C22.11596088 4.1213754 22.91038683 4.95315213 23 8 C22.5 11.0625 22.5 11.0625 21 14 C16.94891719 16.29306574 13.65869101 17.42351736 9 17 C9 19.97 9 22.94 9 26 C2.84765625 26.09765625 2.84765625 26.09765625 1 26 C0 25 0 25 -0.11352539 22.59155273 C-0.10828857 21.54942627 -0.10305176 20.5072998 -0.09765625 19.43359375 C-0.09443359 18.30888672 -0.09121094 17.18417969 -0.08789062 16.02539062 C-0.07951172 14.84138672 -0.07113281 13.65738281 -0.0625 12.4375 C-0.05798828 11.24962891 -0.05347656 10.06175781 -0.04882812 8.83789062 C-0.03699675 5.89187774 -0.02051287 2.94596319 0 0 Z M9 6 C9 7.32 9 8.64 9 10 C10.65 9.67 12.3 9.34 14 9 C13.34 8.01 12.68 7.02 12 6 C11.01 6 10.02 6 9 6 Z " fill="#D6761A" transform="translate(97,191)"/>
<path d="M0 0 C2.536875 -0.061875 5.07375 -0.12375 7.6875 -0.1875 C8.47729248 -0.21481201 9.26708496 -0.24212402 10.08081055 -0.27026367 C14.60318145 -0.32344113 17.43303549 0.18325747 21 3 C22.42662219 5.85324437 22.31033868 7.83454549 22 11 C20.5625 13.8125 20.5625 13.8125 18 16 C14.93827538 16.71668597 12.16797884 16.86023623 9 17 C9 19.97 9 22.94 9 26 C6.03 26 3.06 26 0 26 C0 17.42 0 8.84 0 0 Z M9 6 C9 7.32 9 8.64 9 10 C10.32 10 11.64 10 13 10 C12.67 8.68 12.34 7.36 12 6 C11.01 6 10.02 6 9 6 Z " fill="#B67E21" transform="translate(48,191)"/>
<path d="M0 0 C0 4.95 0 9.9 0 15 C0.99 15 1.98 15 3 15 C3 17.31 3 19.62 3 22 C2.34 22 1.68 22 1 22 C0.67 23.32 0.34 24.64 0 26 C-2.31 26 -4.62 26 -7 26 C-7 24.68 -7 23.36 -7 22 C-10.96 22 -14.92 22 -19 22 C-19.47854622 17.13926086 -19.55284081 14.16998873 -16.62109375 10.15625 C-15.58060874 8.91976971 -14.51869697 7.70104359 -13.4375 6.5 C-12.66696289 5.55253906 -12.66696289 5.55253906 -11.88085938 4.5859375 C-11.36201172 3.99039063 -10.84316406 3.39484375 -10.30859375 2.78125 C-9.84251709 2.24564453 -9.37644043 1.71003906 -8.89624023 1.15820312 C-7 0 -7 0 0 0 Z M-8 10 C-9.03013277 11.64821244 -10.03114628 13.31503702 -11 15 C-9.68 15 -8.36 15 -7 15 C-7 13.35 -7 11.7 -7 10 C-7.33 10 -7.66 10 -8 10 Z " fill="#BA8026" transform="translate(168,191)"/>
<path d="M0 0 C7.92 0 15.84 0 24 0 C24 2.31 24 4.62 24 7 C21.69 7.33 19.38 7.66 17 8 C17.01160156 9.21558594 17.02320312 10.43117187 17.03515625 11.68359375 C17.04453278 13.26822764 17.05363313 14.85286318 17.0625 16.4375 C17.07087891 17.23994141 17.07925781 18.04238281 17.08789062 18.86914062 C17.0965143 20.91295221 17.0522815 22.95683902 17 25 C16.67 25.33 16.34 25.66 16 26 C13.36 26 10.72 26 8 26 C8 19.73 8 13.46 8 7 C5.36 7 2.72 7 0 7 C0 4.69 0 2.38 0 0 Z " fill="#4A8D39" transform="translate(71,191)"/>
<path d="M0 0 C8 0 8 0 10.3125 1.8984375 C11.1478125 3.12433594 11.1478125 3.12433594 12 4.375 C12.5775 5.18710938 13.155 5.99921875 13.75 6.8359375 C15 9 15 9 15 11 C8.07 10.505 8.07 10.505 1 10 C1 11.98 1 13.96 1 16 C4.465 15.505 4.465 15.505 8 15 C8 18.63 8 22.26 8 26 C5.36 26 2.72 26 0 26 C0 17.42 0 8.84 0 0 Z " fill="#B78021" transform="translate(122,191)"/>
<path d="M0 0 C0 3.47511427 -0.90085281 4.93145703 -2.44921875 8.015625 C-6.04342722 16.42873519 -5.78308978 24.75582074 -5.8125 33.75 C-5.83569427 35.42971926 -5.86106965 37.10940989 -5.88867188 38.7890625 C-5.9508926 42.85948228 -5.98372425 46.92914791 -6 51 C-8.71401294 52.35700647 -10.84846316 52.1123861 -13.8828125 52.09765625 C-15.04941406 52.09443359 -16.21601563 52.09121094 -17.41796875 52.08789062 C-18.64128906 52.07951172 -19.86460937 52.07113281 -21.125 52.0625 C-22.35605469 52.05798828 -23.58710938 52.05347656 -24.85546875 52.04882812 C-27.90366639 52.03701341 -30.95183916 52.0190775 -34 52 C-34.33 45.4 -34.66 38.8 -35 32 C-34.34 31.67 -33.68 31.34 -33 31 C-31.74502944 34.76491167 -31.89338352 38.27206475 -31.9375 42.1875 C-31.958125 44.765625 -31.97875 47.34375 -32 50 C-24.08 50 -16.16 50 -8 50 C-8.03480469 47.47085938 -8.06960937 44.94171875 -8.10546875 42.3359375 C-8.12889678 39.87354663 -8.14709482 37.4111684 -8.16479492 34.94873047 C-8.17983738 33.24359537 -8.20027653 31.53849868 -8.22631836 29.83349609 C-8.26290284 27.37587988 -8.27977173 24.91877731 -8.29296875 22.4609375 C-8.30845261 21.70444916 -8.32393646 20.94796082 -8.33988953 20.16854858 C-8.34141453 15.32086437 -7.44826177 12.2957801 -5 8 C-4.67 6.741875 -4.34 5.48375 -4 4.1875 C-3.67 3.135625 -3.34 2.08375 -3 1 C-2.01 0.67 -1.02 0.34 0 0 Z " fill="#29924C" transform="translate(173,136)"/>
<path d="M0 0 C1.73497442 2.60246163 2.61268134 4.46089668 3.5625 7.375 C3.81128906 8.12523437 4.06007812 8.87546875 4.31640625 9.6484375 C5.9009655 15.09932131 6.14704075 20.12656496 6.1328125 25.765625 C6.13376923 26.5996283 6.13472595 27.43363159 6.13571167 28.29290771 C6.13638997 30.04781164 6.13456017 31.80271813 6.13037109 33.55761719 C6.1249908 36.25461378 6.13034172 38.95144588 6.13671875 41.6484375 C6.13605844 43.35416704 6.13477824 45.05989647 6.1328125 46.765625 C6.13483673 47.57598206 6.13686096 48.38633911 6.13894653 49.22125244 C6.11496889 54.88503111 6.11496889 54.88503111 5 56 C2.99836123 56.0167793 0.99605136 55.96262541 -1.00390625 55.87890625 C-2.21884766 55.83056641 -3.43378906 55.78222656 -4.68554688 55.73242188 C-5.96494141 55.67634766 -7.24433594 55.62027344 -8.5625 55.5625 C-9.84576172 55.51029297 -11.12902344 55.45808594 -12.45117188 55.40429688 C-15.63433391 55.2741304 -18.81722004 55.13914999 -22 55 C-22.01458252 54.02240723 -22.02916504 53.04481445 -22.04418945 52.03759766 C-22.10272927 48.3656999 -22.17995134 44.69438024 -22.26245117 41.02294922 C-22.29544137 39.44231642 -22.32355148 37.86157313 -22.34643555 36.28076172 C-22.52371587 20.23162727 -22.52371587 20.23162727 -29.1875 5.875 C-29.71730469 5.12992188 -30.24710938 4.38484375 -30.79296875 3.6171875 C-31.19128906 3.08351562 -31.58960938 2.54984375 -32 2 C-25.02227394 4.76105386 -25.02227394 4.76105386 -23 7 C-22.5255902 9.32503543 -22.31188946 11.57312343 -22.17578125 13.94140625 C-22.12228967 16.06333296 -22.12228967 16.06333296 -21 18 C-20.91324462 20.69893181 -20.88442103 23.37169231 -20.90234375 26.0703125 C-20.9037587 26.86654022 -20.90517365 27.66276794 -20.90663147 28.48312378 C-20.91223655 31.0304538 -20.92478986 33.57769647 -20.9375 36.125 C-20.94251435 37.85025915 -20.94707737 39.57551967 -20.95117188 41.30078125 C-20.96135747 45.53391504 -20.9809318 49.76685954 -21 54 C-12.42 54 -3.84 54 5 54 C5 42.12 5 30.24 5 18 C4.34 18 3.68 18 3 18 C2.95101562 17.40832031 2.90203125 16.81664062 2.8515625 16.20703125 C2.42997084 11.75124357 1.77403841 8.13942297 0 4 C0 2.68 0 1.36 0 0 Z " fill="#1D9444" transform="translate(68,132)"/>
<path d="M0 0 C2.31 0 4.62 0 7 0 C9.43929003 3.65893505 9.26289673 6.40278333 9.1875 10.625 C9.18685547 11.31851563 9.18621094 12.01203125 9.18554688 12.7265625 C9.14043257 17.85956743 9.14043257 17.85956743 8 19 C5.36 19 2.72 19 0 19 C0 12.73 0 6.46 0 0 Z " fill="#99842F" transform="translate(79,198)"/>
<path d="M0 0 C2.56314499 -0.08132187 5.12368418 -0.14064175 7.6875 -0.1875 C8.40873047 -0.21263672 9.12996094 -0.23777344 9.87304688 -0.26367188 C14.44465213 -0.3262966 17.41650333 0.07807195 21 3 C21.8125 5.6875 21.8125 5.6875 22 8 C17.545 8.495 17.545 8.495 13 9 C12.67 8.34 12.34 7.68 12 7 C11.01 6.67 10.02 6.34 9 6 C8.67 6.66 8.34 7.32 8 8 C5.36 8 2.72 8 0 8 C0 5.36 0 2.72 0 0 Z " fill="#4D8C38" transform="translate(48,191)"/>
<path d="M0 0 C2.7302389 -0.1083667 5.45614543 -0.18746694 8.1875 -0.25 C8.95642578 -0.28351563 9.72535156 -0.31703125 10.51757812 -0.3515625 C14.64610431 -0.42243849 16.50155164 -0.32932056 20.05078125 2.015625 C20.69402344 2.67046875 21.33726563 3.3253125 22 4 C21.67 4.99 21.34 5.98 21 7 C14.07 7 7.14 7 0 7 C0 4.69 0 2.38 0 0 Z " fill="#3E8936" transform="translate(97,191)"/>
<path d="M0 0 C0.33 0.66 0.66 1.32 1 2 C7.93 2 14.86 2 22 2 C22 2.99 22 3.98 22 5 C21.34 5 20.68 5 20 5 C19.67 6.32 19.34 7.64 19 9 C16.69 9 14.38 9 12 9 C12 7.68 12 6.36 12 5 C8.04 5 4.08 5 0 5 C0 3.35 0 1.7 0 0 Z " fill="#708936" transform="translate(149,208)"/>
<path d="M0 0 C5.61 0 11.22 0 17 0 C17.33 1.32 17.66 2.64 18 4 C15 5 15 5 11.75 4.9375 C7.68914072 5.00518099 4.83799026 5.77184312 1 7 C0.67 7 0.34 7 0 7 C0 4.69 0 2.38 0 0 Z " fill="#E27915" transform="translate(49,201)"/>
<path d="M0 0 C1.3077036 2.6154072 0.76582573 3.5640522 0.00390625 6.3515625 C-0.22490234 7.20234375 -0.45371094 8.053125 -0.68945312 8.9296875 C-0.93630859 9.81914062 -1.18316406 10.70859375 -1.4375 11.625 C-1.68048828 12.5221875 -1.92347656 13.419375 -2.17382812 14.34375 C-2.77621451 16.56431158 -3.38518001 18.78285481 -4 21 C-4.66 21 -5.32 21 -6 21 C-6.50377768 18.73000175 -7.00290019 16.45896997 -7.5 14.1875 C-7.91765625 12.29064453 -7.91765625 12.29064453 -8.34375 10.35546875 C-9 7 -9 7 -9 4 C-5.98968256 3.06576355 -5.13349732 2.95550089 -2 4 C-1.34 2.68 -0.68 1.36 0 0 Z " fill="#DD7715" transform="translate(111,119)"/>
<path d="M0 0 C1.8871875 0.0309375 1.8871875 0.0309375 3.8125 0.0625 C4.1425 1.0525 4.4725 2.0425 4.8125 3.0625 C4.4825 3.3925 4.1525 3.7225 3.8125 4.0625 C4.8025 4.7225 5.7925 5.3825 6.8125 6.0625 C5.8225 6.0625 4.8325 6.0625 3.8125 6.0625 C3.4825 7.0525 3.1525 8.0425 2.8125 9.0625 C-2.36680997 7.81946561 -5.88916639 6.20762215 -10.1875 3.0625 C-6.61118771 0.67829181 -4.20439261 -0.06892447 0 0 Z " fill="#D6761D" transform="translate(63.1875,68.9375)"/>
<path d="M0 0 C2.85818883 2.47989913 4.19893393 5.13646878 5.75 8.5625 C6.19859375 9.53316406 6.6471875 10.50382812 7.109375 11.50390625 C7.40328125 12.32761719 7.6971875 13.15132812 8 14 C7.67 14.66 7.34 15.32 7 16 C5 13 5 13 5 10 C2.92446352 9.4465236 1.15634036 9 -1 9 C-1.66 9 -2.32 9 -3 9 C-3.103125 9.70125 -3.20625 10.4025 -3.3125 11.125 C-4.09359003 14.39137647 -5.42058743 17.0471852 -7 20 C-8.31023459 16.98570307 -7.93427185 15.80573181 -6.85546875 12.6171875 C-6.31126973 11.36460289 -5.75484668 10.11727152 -5.1875 8.875 C-4.91357422 8.24207031 -4.63964844 7.60914063 -4.35742188 6.95703125 C-3.14497622 4.21812524 -2.1349024 2.1349024 0 0 Z " fill="#D9761F" transform="translate(106,6)"/>
<path d="M0 0 C3.96 0 7.92 0 12 0 C12 2.31 12 4.62 12 7 C6.75789474 7.43684211 6.75789474 7.43684211 4 7 C1.5 4.625 1.5 4.625 0 2 C0 1.34 0 0.68 0 0 Z " fill="#5D8E30" transform="translate(135,210)"/>
<path d="M0 0 C1.134375 0.020625 2.26875 0.04125 3.4375 0.0625 C3.4375 2.3725 3.4375 4.6825 3.4375 7.0625 C-0.5225 7.0625 -4.4825 7.0625 -8.5625 7.0625 C-3.94996224 0.06929758 -3.94996224 0.06929758 0 0 Z " fill="#2D933B" transform="translate(164.5625,190.9375)"/>
<path d="M0 0 C0 3.70049409 -1.18416994 5.33081135 -2.9453125 8.57421875 C-6.8866288 16.91910449 -6.89425953 24.71911151 -6.875 33.8125 C-6.89317521 35.39130888 -6.91399278 36.97008963 -6.9375 38.54882812 C-6.98870825 42.36624742 -7.00447679 46.18225669 -7 50 C-7.33 50 -7.66 50 -8 50 C-8.07442006 44.98294279 -8.12872908 39.96621028 -8.16479492 34.94873047 C-8.17983738 33.24359537 -8.20027653 31.53849868 -8.22631836 29.83349609 C-8.26290284 27.37587988 -8.27977173 24.91877731 -8.29296875 22.4609375 C-8.30845261 21.70444916 -8.32393646 20.94796082 -8.33988953 20.16854858 C-8.34141453 15.32086437 -7.44826177 12.2957801 -5 8 C-4.505 6.1128125 -4.505 6.1128125 -4 4.1875 C-3.67 3.135625 -3.34 2.08375 -3 1 C-2.01 0.67 -1.02 0.34 0 0 Z " fill="#0F983C" transform="translate(173,136)"/>
<path d="M0 0 C0 2.64 0 5.28 0 8 C-2.97 8 -5.94 8 -9 8 C-9 5.69 -9 3.38 -9 1 C-2.25 0 -2.25 0 0 0 Z " fill="#33923C" transform="translate(57,209)"/>
<path d="M0 0 C7.26 0 14.52 0 22 0 C21.67 0.99 21.34 1.98 21 3 C14.07 3 7.14 3 0 3 C0 2.01 0 1.02 0 0 Z " fill="#1C9A33" transform="translate(72,192)"/>
<path d="M0 0 C5.94 0 11.88 0 18 0 C18.33 0.99 18.66 1.98 19 3 C12.62694402 3.74507544 6.41688675 4.10349817 0 4 C0 2.68 0 1.36 0 0 Z " fill="#229933" transform="translate(49,192)"/>
<path d="M0 0 C0 3.99904969 -1.72586967 5.80200422 -4 9 C-3.01 9 -2.02 9 -1 9 C-1 9.99 -1 10.98 -1 12 C-0.34 12.33 0.32 12.66 1 13 C1 13.99 1 14.98 1 16 C1.99 16 2.98 16 4 16 C4 16.66 4 17.32 4 18 C-0.47238653 16.58192622 -4.71146306 14.88695626 -9 13 C-7.50923566 9.7173068 -5.61379679 7.06922559 -3.375 4.25 C-2.74335938 3.45078125 -2.11171875 2.6515625 -1.4609375 1.828125 C-0.97882812 1.22484375 -0.49671875 0.6215625 0 0 Z " fill="#11963D" transform="translate(23,109)"/>
<path d="M0 0 C8.67499011 7.04842946 15.9687055 14.91835307 21 25 C21 25.66 21 26.32 21 27 C20.34 27 19.68 27 19 27 C17 24 17 24 17 21 C16.06800781 20.88205078 16.06800781 20.88205078 15.1171875 20.76171875 C13 20 13 20 11.9453125 18.14453125 C11.67460938 17.37496094 11.40390625 16.60539062 11.125 15.8125 C8.738323 9.88825827 5.33743682 6.55829121 0 3 C0 2.01 0 1.02 0 0 Z " fill="#238B3D" transform="translate(74,90)"/>
<path d="M0 0 C3 0.125 3 0.125 4 1.125 C4.04092937 3.45797433 4.04241723 5.79205225 4 8.125 C1.36 8.125 -1.28 8.125 -4 8.125 C-4.04241723 5.79205225 -4.04092937 3.45797433 -4 1.125 C-3 0.125 -3 0.125 0 0 Z " fill="#C87D1A" transform="translate(84,199.875)"/>
<path d="M0 0 C6.15234375 -0.09765625 6.15234375 -0.09765625 8 0 C9 1 9 1 9.0625 4.0625 C9.041875 5.031875 9.02125 6.00125 9 7 C2.84765625 7.09765625 2.84765625 7.09765625 1 7 C0 6 0 6 -0.0625 2.9375 C-0.041875 1.968125 -0.02125 0.99875 0 0 Z " fill="#5C8B38" transform="translate(97,210)"/>
<path d="M0 0 C0 1.98 0 3.96 0 6 C-3.37885612 6.28526928 -6.63291991 6.46087248 -10 6 C-12.125 3.5 -12.125 3.5 -13 1 C-11.39602723 0.83147753 -9.7918131 0.66525114 -8.1875 0.5 C-7.29417969 0.4071875 -6.40085938 0.314375 -5.48046875 0.21875 C-3 0 -3 0 0 0 Z " fill="#E17814" transform="translate(145,201)"/>
<path d="M0 0 C5.28497409 -0.44041451 5.28497409 -0.44041451 8 0 C10.5 2.5 10.5 2.5 12 5 C11.67 5.66 11.34 6.32 11 7 C7.37 6.67 3.74 6.34 0 6 C0 4.02 0 2.04 0 0 Z " fill="#478936" transform="translate(122,191)"/>
<path d="M0 0 C-2.36751976 4.90414807 -3.8917069 7.00651976 -9 9 C-9.495 9.495 -9.99 9.99 -10.5 10.5 C-12.46640406 12.46640406 -14.3736174 13.14642565 -17 14 C-17.99 14 -18.98 14 -20 14 C-18.12812601 12.41284471 -16.2526762 10.83026649 -14.375 9.25 C-13.59189453 8.58484375 -13.59189453 8.58484375 -12.79296875 7.90625 C-3.37522978 0 -3.37522978 0 0 0 Z " fill="#1B933E" transform="translate(154,79)"/>
<path d="M0 0 C3.95820859 0.56545837 6.6659053 1.80902348 10 4 C9.01 4.495 9.01 4.495 8 5 C7.01 4.67 6.02 4.34 5 4 C2.36195411 4.39397335 2.36195411 4.39397335 0 5 C0 6.32 0 7.64 0 9 C-2.31 9.33 -4.62 9.66 -7 10 C-5.33248852 6.05860922 -2.77289351 3.2107188 0 0 Z " fill="#10993C" transform="translate(31,99)"/>
<path d="M0 0 C1.134375 0.020625 2.26875 0.04125 3.4375 0.0625 C3.4375 2.3725 3.4375 4.6825 3.4375 7.0625 C0.7975 7.0625 -1.8425 7.0625 -4.5625 7.0625 C-4.60504356 5.06295254 -4.60330783 3.06208364 -4.5625 1.0625 C-3.5625 0.0625 -3.5625 0.0625 0 0 Z " fill="#449035" transform="translate(126.5625,209.9375)"/>
<path d="M0 0 C2.97 0 5.94 0 9 0 C9 0.99 9 1.98 9 3 C6.69 3.33 4.38 3.66 2 4 C1.67 5.98 1.34 7.96 1 10 C3.64 10 6.28 10 9 10 C8.67 10.99 8.34 11.98 8 13 C5.36 12.67 2.72 12.34 0 12 C0 8.04 0 4.08 0 0 Z " fill="#A38027" transform="translate(97,198)"/>
<path d="M0 0 C2.31 0 4.62 0 7 0 C7 0.66 7 1.32 7 2 C8.32 2 9.64 2 11 2 C11 2.99 11 3.98 11 5 C7.32589215 6.17571451 3.83070817 6.07366746 0 6 C0 4.02 0 2.04 0 0 Z " fill="#E37915" transform="translate(99,201)"/>
<path d="M0 0 C2.64 0 5.28 0 8 0 C8.04254356 1.99954746 8.04080783 4.00041636 8 6 C7 7 7 7 4.625 7.3125 C2 7 2 7 0.125 5.1875 C-0.24625 4.465625 -0.6175 3.74375 -1 3 C-0.67 2.01 -0.34 1.02 0 0 Z " fill="#388D37" transform="translate(139,191)"/>
<path d="M0 0 C5.94 0 11.88 0 18 0 C18 0.99 18 1.98 18 3 C12.06 3 6.12 3 0 3 C0 2.01 0 1.02 0 0 Z " fill="#1E9932" transform="translate(98,192)"/>
<path d="M0 0 C1.134375 0.020625 2.26875 0.04125 3.4375 0.0625 C3.81968767 1.71864657 4.15145102 3.38707024 4.4375 5.0625 C3.4375 6.0625 3.4375 6.0625 1.58984375 6.16015625 C-0.4609375 6.12760417 -2.51171875 6.09505208 -4.5625 6.0625 C-4.605221 4.39638095 -4.60313832 2.72867115 -4.5625 1.0625 C-3.5625 0.0625 -3.5625 0.0625 0 0 Z " fill="#518D3F" transform="translate(83.5625,210.9375)"/>
<path d="M0 0 C0 3 0 3 -1 6 C-1.639375 6.433125 -2.27875 6.86625 -2.9375 7.3125 C-5.2878738 8.92327088 -5.2878738 8.92327088 -6 12.125 C-6.33 13.07375 -6.66 14.0225 -7 15 C-9.125 15.875 -9.125 15.875 -11 16 C-11.33 17.65 -11.66 19.3 -12 21 C-12.66 21 -13.32 21 -14 21 C-12.61231224 15.7961709 -10.30951763 12.36325762 -7 8.25 C-6.54882812 7.67378906 -6.09765625 7.09757812 -5.6328125 6.50390625 C-3.84064338 4.22923006 -2.04915597 2.04915597 0 0 Z " fill="#1E923B" transform="translate(133,94)"/>
<path d="M0 0 C0 0.66 0 1.32 0 2 C-3.7615584 5.64757179 -7.03533083 6.83184255 -12 8 C-12 8.66 -12 9.32 -12 10 C-13.98 10.33 -15.96 10.66 -18 11 C-13.90793979 6.20241216 -6.54758015 0 0 0 Z " fill="#169541" transform="translate(182,98)"/>
<path d="M0 0 C0.66 0.66 1.32 1.32 2 2 C1.3125 4.875 1.3125 4.875 0 8 C-2.625 9.375 -2.625 9.375 -5 10 C-4.67 9.01 -4.34 8.02 -4 7 C-3.01 7 -2.02 7 -1 7 C-1 6.01 -1 5.02 -1 4 C-3.31 4 -5.62 4 -8 4 C-8 3.01 -8 2.02 -8 1 C-1.9453125 0.0234375 -1.9453125 0.0234375 0 0 Z " fill="#B07F2B" transform="translate(118,197)"/>
<path d="M0 0 C0.66 0.33 1.32 0.66 2 1 C-0.12342658 2.64789866 -2.2486449 4.29338788 -4.375 5.9375 C-4.97828125 6.40607422 -5.5815625 6.87464844 -6.203125 7.35742188 C-10.7734375 10.88671875 -10.7734375 10.88671875 -13 12 C-13.33 10.68 -13.66 9.36 -14 8 C-12.54462432 7.16151196 -11.08559627 6.32936066 -9.625 5.5 C-8.40683594 4.80390625 -8.40683594 4.80390625 -7.1640625 4.09375 C-5 3 -5 3 -3 3 C-3 2.34 -3 1.68 -3 1 C-2.01 0.67 -1.02 0.34 0 0 Z " fill="#C97321" transform="translate(146,78)"/>
<path d="M0 0 C2.64 0 5.28 0 8 0 C7.67 1.65 7.34 3.3 7 5 C4.69 5.33 2.38 5.66 0 6 C0 4.02 0 2.04 0 0 Z " fill="#E17811" transform="translate(123,201)"/>
<path d="M0 0 C1.134375 0.020625 2.26875 0.04125 3.4375 0.0625 C-0.44922813 3.24255028 -4.46202133 6.16804447 -8.5625 9.0625 C-9.2225 8.7325 -9.8825 8.4025 -10.5625 8.0625 C-9.1875 5.5625 -9.1875 5.5625 -7.5625 3.0625 C-6.9025 3.0625 -6.2425 3.0625 -5.5625 3.0625 C-5.2325 2.4025 -4.9025 1.7425 -4.5625 1.0625 C-3.5625 0.0625 -3.5625 0.0625 0 0 Z " fill="#12953C" transform="translate(169.5625,98.9375)"/>
<path d="M0 0 C7.63655194 -0.545468 12.6451661 1.14839119 18.5 6.125 C20 8 20 8 20 10 C18.02 10 16.04 10 14 10 C14.99 9.34 15.98 8.68 17 8 C11.52337418 3.47583085 7.01012283 1.94502662 0 1 C0 0.67 0 0.34 0 0 Z " fill="#C87835" transform="translate(130,53)"/>
<path d="M0 0 C3.02107902 -0.0543251 6.04116528 -0.09382927 9.0625 -0.125 C9.91005859 -0.14175781 10.75761719 -0.15851563 11.63085938 -0.17578125 C16.83418201 -0.21596135 21.07469821 0.30254185 26 2 C24.68 3.32 23.36 4.64 22 6 C21.67 5.34 21.34 4.68 21 4 C21.33 3.34 21.66 2.68 22 2 C14.74 1.67 7.48 1.34 0 1 C0 0.67 0 0.34 0 0 Z " fill="#BA763A" transform="translate(133,69)"/>
<path d="M0 0 C4.29 0 8.58 0 13 0 C12.67 0.99 12.34 1.98 12 3 C10.35 2.67 8.7 2.34 7 2 C7 3.65 7 5.3 7 7 C5.5 5.625 5.5 5.625 4 4 C4 3.34 4 2.68 4 2 C2.35 2 0.7 2 -1 2 C-0.67 1.34 -0.34 0.68 0 0 Z " fill="#9F7F24" transform="translate(155,198)"/>
<path d="M0 0 C0.99 0.66 1.98 1.32 3 2 C2.67 2.99 2.34 3.98 2 5 C-4.6 5 -11.2 5 -18 5 C-18 4.67 -18 4.34 -18 4 C-9.09 3.01 -9.09 3.01 0 2 C0 1.34 0 0.68 0 0 Z " fill="#5B8C31" transform="translate(116,193)"/>
<path d="M0 0 C0.99 0 1.98 0 3 0 C3 0.66 3 1.32 3 2 C3.66 2 4.32 2 5 2 C5 2.66 5 3.32 5 4 C6.32 4 7.64 4 9 4 C8.67 5.32 8.34 6.64 8 8 C6.0625 7.6875 6.0625 7.6875 4 7 C3.67 6.01 3.34 5.02 3 4 C0.99983534 2.79117904 0.99983534 2.79117904 -1 2 C-0.67 1.34 -0.34 0.68 0 0 Z " fill="#E87612" transform="translate(75,58)"/>
<path d="M0 0 C2.97 0 5.94 0 9 0 C9 1.32 9 2.64 9 4 C6.36 4 3.72 4 1 4 C0.67 2.68 0.34 1.36 0 0 Z " fill="#2B8E38" transform="translate(138,213)"/>
<path d="M0 0 C3.62276315 1.3255581 6.63505348 2.94346955 9.8125 5.125 C10.60269531 5.66382812 11.39289063 6.20265625 12.20703125 6.7578125 C12.79871094 7.16773437 13.39039062 7.57765625 14 8 C12 9 12 9 9.8359375 8.44140625 C9.02382812 8.15136719 8.21171875 7.86132812 7.375 7.5625 C6.55773438 7.27503906 5.74046875 6.98757812 4.8984375 6.69140625 C4.27195312 6.46324219 3.64546875 6.23507813 3 6 C3 4.68 3 3.36 3 2 C2.01 2 1.02 2 0 2 C0 1.34 0 0.68 0 0 Z " fill="#1C8F3E" transform="translate(55,77)"/>
<path d="M0 0 C2.31 0 4.62 0 7 0 C7.33 1.65 7.66 3.3 8 5 C5.69 5 3.38 5 1 5 C0.67 3.35 0.34 1.7 0 0 Z " fill="#2D8F36" transform="translate(160,212)"/>
<path d="M0 0 C5.80205656 5.64524422 5.80205656 5.64524422 8 9 C8 9.66 8 10.32 8 11 C6.02 11.66 4.04 12.32 2 13 C2.33 12.34 2.66 11.68 3 11 C3.66 11 4.32 11 5 11 C4.34 10.01 3.68 9.02 3 8 C1.0549 5.08235 0.54723683 3.37462715 0 0 Z " fill="#199344" transform="translate(171,86)"/>
<path d="M0 0 C3.3 0 6.6 0 10 0 C10.33 0.66 10.66 1.32 11 2 C6.38 3.32 1.76 4.64 -3 6 C-3 5.01 -3 4.02 -3 3 C-1.68 2.67 -0.36 2.34 1 2 C0.67 1.34 0.34 0.68 0 0 Z " fill="#D77523" transform="translate(137,60)"/>
<path d="M0 0 C1.65 0 3.3 0 5 0 C5 1.98 5 3.96 5 6 C3.0625 6.5625 3.0625 6.5625 1 7 C0 6 0 6 -0.0625 2.9375 C-0.041875 1.968125 -0.02125 0.99875 0 0 Z " fill="#D97A14" transform="translate(162,200)"/>
<path d="M0 0 C3.32489949 3.32489949 5.35482388 8.32247313 6 13 C5.5625 15.25 5.5625 15.25 5 17 C4.34 17 3.68 17 3 17 C2.49622232 14.73000175 1.99709981 12.45896997 1.5 10.1875 C1.08234375 8.29064453 1.08234375 8.29064453 0.65625 6.35546875 C0 3 0 3 0 0 Z " fill="#A2793B" transform="translate(102,123)"/>
<path d="M0 0 C0 3.86474861 -1.34492416 6.20494458 -3 9.6875 C-3.556875 10.86699219 -4.11375 12.04648438 -4.6875 13.26171875 C-5.120625 14.16535156 -5.55375 15.06898438 -6 16 C-7.26704387 12.1988684 -6.50086815 10.63666872 -5.25 6.875 C-4.90453125 5.79992187 -4.5590625 4.72484375 -4.203125 3.6171875 C-3.80609375 2.75351563 -3.4090625 1.88984375 -3 1 C-2.01 0.67 -1.02 0.34 0 0 Z " fill="#179142" transform="translate(173,136)"/>
<path d="M0 0 C5.03213609 2.37628649 6.62170542 5.15532587 9 10 C9 10.66 9 11.32 9 12 C8.34 12 7.68 12 7 12 C5 9 5 9 5 6 C3.68 5.67 2.36 5.34 1 5 C0.67 3.35 0.34 1.7 0 0 Z " fill="#18923C" transform="translate(86,105)"/>
<path d="M0 0 C2.475 0.99 2.475 0.99 5 2 C5 2.33 5 2.66 5 3 C4.21625 3.0825 3.4325 3.165 2.625 3.25 C1.75875 3.4975 0.8925 3.745 0 4 C-0.70151152 5.3153341 -1.36525925 6.65117592 -2 8 C-4.625 9.75 -4.625 9.75 -7 11 C-5.22054913 6.95579349 -2.60470327 3.53921513 0 0 Z " fill="#1F8E42" transform="translate(50,74)"/>
<path d="M0 0 C2.31 0 4.62 0 7 0 C7 1.32 7 2.64 7 4 C4.69 4 2.38 4 0 4 C0 2.68 0 1.36 0 0 Z " fill="#27972E" transform="translate(98,212)"/>
<path d="M0 0 C1.65 0 3.3 0 5 0 C5 1.65 5 3.3 5 5 C3.35 5.33 1.7 5.66 0 6 C0 4.02 0 2.04 0 0 Z " fill="#E47818" transform="translate(81,201)"/>
<path d="M0 0 C1.77007714 -0.08114106 3.54122098 -0.13925505 5.3125 -0.1875 C6.29863281 -0.22230469 7.28476563 -0.25710937 8.30078125 -0.29296875 C11 0 11 0 14 3 C9.38 3 4.76 3 0 3 C0 2.01 0 1.02 0 0 Z " fill="#7F8524" transform="translate(122,197)"/>
<path d="M0 0 C0.33 0.99 0.66 1.98 1 3 C3.64 3 6.28 3 9 3 C9 3.66 9 4.32 9 5 C5.04 5 1.08 5 -3 5 C-2.01 3.35 -1.02 1.7 0 0 Z " fill="#5C8A2A" transform="translate(159,193)"/>
<path d="M0 0 C0.5534764 2.07553648 1 3.84365964 1 6 C0.34 6 -0.32 6 -1 6 C-1.1546875 6.86625 -1.1546875 6.86625 -1.3125 7.75 C-2.09792798 10.32049158 -3.30504197 11.93657284 -5 14 C-4.46515599 8.65155992 -2.53309233 4.64203897 0 0 Z " fill="#249441" transform="translate(118,115)"/>
<path d="M0 0 C2.64 0 5.28 0 8 0 C8 0.99 8 1.98 8 3 C5.36 3.33 2.72 3.66 0 4 C0 2.68 0 1.36 0 0 Z " fill="#1F9631" transform="translate(123,192)"/>
<path d="M0 0 C0.66 0 1.32 0 2 0 C1.67 2.97 1.34 5.94 1 9 C-2.08669204 5.91330796 -2.44855089 5.08072342 -3 1 C-2.34 1 -1.68 1 -1 1 C-1 1.99 -1 2.98 -1 4 C-0.67 2.68 -0.34 1.36 0 0 Z " fill="#D27624" transform="translate(102,114)"/>
<path d="M0 0 C1.43581474 1.61457079 2.80144783 3.29219075 4.125 5 C4.84945312 5.928125 5.57390625 6.85625 6.3203125 7.8125 C6.87460938 8.534375 7.42890625 9.25625 8 10 C7.67 10.66 7.34 11.32 7 12 C6.54109375 11.45730469 6.0821875 10.91460937 5.609375 10.35546875 C4.99578125 9.64003906 4.3821875 8.92460938 3.75 8.1875 C3.14671875 7.47980469 2.5434375 6.77210937 1.921875 6.04296875 C0.07629602 4.08110329 -1.79945332 2.54330375 -4 1 C-2 0 -2 0 0 0 Z " fill="#248C47" transform="translate(163,74)"/>
<path d="M0 0 C1.40907283 2.81814566 0.50872691 4.17277204 -0.4375 7.125 C-0.72496094 8.03507812 -1.01242188 8.94515625 -1.30859375 9.8828125 C-1.53675781 10.58148438 -1.76492187 11.28015625 -2 12 C-3.37579827 9.33788628 -4.37063561 6.93703384 -5 4 C-4.01 4 -3.02 4 -2 4 C-1.34 2.68 -0.68 1.36 0 0 Z " fill="#CD7729" transform="translate(111,119)"/>
<path d="M0 0 C0.33 0 0.66 0 1 0 C1.56561146 5.65611463 -0.28608722 9.22642128 -3 14 C-4.37095624 10.30962722 -3.60010967 8.29116165 -2.0625 4.75 C-1.68222656 3.85796875 -1.30195312 2.9659375 -0.91015625 2.046875 C-0.60980469 1.37140625 -0.30945313 0.6959375 0 0 Z " fill="#CA742C" transform="translate(102,12)"/>
<path d="M0 0 C0 1.65 0 3.3 0 5 C-4.455 4.01 -4.455 4.01 -9 3 C-9 2.34 -9 1.68 -9 1 C-2.25 0 -2.25 0 0 0 Z " fill="#6B8A2A" transform="translate(57,209)"/>
<path d="M0 0 C0.66 0 1.32 0 2 0 C1.814375 0.61875 1.62875 1.2375 1.4375 1.875 C0.76313824 4.04160178 0.76313824 4.04160178 2 6 C0.02 6 -1.96 6 -4 6 C-2.84826645 3.53199953 -1.95216435 1.95216435 0 0 Z " fill="#E27A18" transform="translate(155,201)"/>
<path d="M0 0 C0 0.99 0 1.98 0 3 C-4.455 3.495 -4.455 3.495 -9 4 C-9.33 3.01 -9.66 2.02 -10 1 C-2.25 0 -2.25 0 0 0 Z " fill="#738626" transform="translate(70,196)"/>
<path d="M0 0 C2.42945561 3.64418341 2.0828781 4.92923364 1.625 9.1875 C1.51414063 10.27417969 1.40328125 11.36085937 1.2890625 12.48046875 C1.19367188 13.31191406 1.09828125 14.14335937 1 15 C0.67 15 0.34 15 0 15 C-0.19390729 12.68802845 -0.37996367 10.3753971 -0.5625 8.0625 C-0.71912109 6.13083984 -0.71912109 6.13083984 -0.87890625 4.16015625 C-0.91886719 3.11730469 -0.95882812 2.07445312 -1 1 C-0.67 0.67 -0.34 0.34 0 0 Z " fill="#159843" transform="translate(139,167)"/>
<path d="M0 0 C3 1 3 1 4.203125 2.9609375 C4.54859375 3.75757812 4.8940625 4.55421875 5.25 5.375 C5.60578125 6.16648437 5.9615625 6.95796875 6.328125 7.7734375 C7 10 7 10 6 13 C4.99491199 11.21118264 3.99607264 9.41885304 3 7.625 C2.1646875 6.12839844 2.1646875 6.12839844 1.3125 4.6015625 C0 2 0 2 0 0 Z " fill="#14933D" transform="translate(65,120)"/>
<path d="M0 0 C1.32 0.33 2.64 0.66 4 1 C1.525 5.455 1.525 5.455 -1 10 C-2.31223496 6.06329512 -1.24296256 3.87511856 0 0 Z " fill="#C57726" transform="translate(116,105)"/>
<path d="M0 0 C0 3 0 3 -1 6 C-2.62890625 7.38671875 -2.62890625 7.38671875 -4.5625 8.6875 C-5.52349609 9.34298828 -5.52349609 9.34298828 -6.50390625 10.01171875 C-6.99761719 10.33785156 -7.49132812 10.66398437 -8 11 C-6.63629701 8.00779732 -5.05091917 5.70973471 -2.875 3.25 C-2.33617187 2.63640625 -1.79734375 2.0228125 -1.2421875 1.390625 C-0.62730469 0.70226562 -0.62730469 0.70226562 0 0 Z " fill="#248B44" transform="translate(133,94)"/>
<path d="M0 0 C1.98 0 3.96 0 6 0 C6.33 0.99 6.66 1.98 7 3 C4.36 3 1.72 3 -1 3 C-0.67 2.01 -0.34 1.02 0 0 Z " fill="#23933B" transform="translate(81,213)"/>
<path d="M0 0 C2.97 0.495 2.97 0.495 6 1 C1.25 5.875 1.25 5.875 -1 7 C-0.67 4.69 -0.34 2.38 0 0 Z " fill="#0F973E" transform="translate(176,128)"/>
<path d="M0 0 C0.598125 0.20625 1.19625 0.4125 1.8125 0.625 C1.8125 3.625 1.8125 3.625 0.8125 5.625 C0.1525 5.625 -0.5075 5.625 -1.1875 5.625 C-1.1875 4.635 -1.1875 3.645 -1.1875 2.625 C-2.5075 2.295 -3.8275 1.965 -5.1875 1.625 C-2.1875 -0.375 -2.1875 -0.375 0 0 Z " fill="#149B3D" transform="translate(159.1875,76.375)"/>
<path d="M0 0 C2.96052484 3.36423277 3.92289822 6.69159287 5 11 C3.5 9.6875 3.5 9.6875 2 8 C2 7.01 2 6.02 2 5 C0.68 4.67 -0.64 4.34 -2 4 C-1.34 2.68 -0.68 1.36 0 0 Z " fill="#CC762B" transform="translate(109,11)"/>
<path d="M0 0 C0.99 0.33 1.98 0.66 3 1 C3 2.32 3 3.64 3 5 C3.66 5 4.32 5 5 5 C4.67 7.31 4.34 9.62 4 12 C3.67 12 3.34 12 3 12 C2.01 8.04 1.02 4.08 0 0 Z " fill="#11933A" transform="translate(72,135)"/>
<path d="M0 0 C2.31 0 4.62 0 7 0 C7 0.66 7 1.32 7 2 C4.36 2.33 1.72 2.66 -1 3 C-0.67 2.01 -0.34 1.02 0 0 Z " fill="#BE7F20" transform="translate(139,199)"/>
<path d="M0 0 C1.65 0.33 3.3 0.66 5 1 C4.67 1.99 4.34 2.98 4 4 C2.02 4.33 0.04 4.66 -2 5 C-1.34 3.35 -0.68 1.7 0 0 Z " fill="#E6781F" transform="translate(126,202)"/>
<path d="M0 0 C6.0546875 -0.1953125 6.0546875 -0.1953125 8 0 C8.66 0.66 9.32 1.32 10 2 C7.525 3.485 7.525 3.485 5 5 C5.33 3.68 5.66 2.36 6 1 C4.02 1 2.04 1 0 1 C0 0.67 0 0.34 0 0 Z " fill="#C57936" transform="translate(149,70)"/>
<path d="M0 0 C0.66 0.33 1.32 0.66 2 1 C2.625 3.5625 2.625 3.5625 3 6 C2.01 6.33 1.02 6.66 0 7 C-0.33 6.34 -0.66 5.68 -1 5 C-0.67 4.34 -0.34 3.68 0 3 C-1.32 3.33 -2.64 3.66 -4 4 C-2.68 2.68 -1.36 1.36 0 0 Z " fill="#D77626" transform="translate(124,55)"/>
</svg>
